{"title":"Young Einstein - (1988) WebRip x264 [AClass].mp4","uid":11841852,"size":1319768527,"categoryP":"video","categoryS":"movies","magnet":"?xt=urn:btih:f005413408fefc0446872322a4553cc94031b09e&amp;dn=Young+Einstein+-+%281988%29+WebRip+x264+%5BAClass%5D.mp4&amp;tr=udp%3A%2F%2Ftracker.openbittorrent.com%3A80&amp;tr=udp%3A%2F%2Fopen.demonii.com%3A1337&amp;tr=udp%3A%2F%2Ftracker.coppersurfer.tk%3A6969&amp;tr=udp%3A%2F%2Fexodus.desync.com%3A6969","seeders":9,"leechers":1,"uploader":"akula941","files":1,"time":1429869759,"description":"The life of legendary scientist Albert Einstein is re-imagined as a slapstick farce in this comic fantasy. Changing Einstein's country of origin from Germany to Tasmania, the film shows the scientist's eventful youth as he creates rock &amp; roll and discovers the secret of splitting the beer atom. Director and star Yahoo Serious loads the film with slapstick comedy, absurd sight gags, and even sneaks in a romantic subplot in which Einstein courts Marie Curie. The film was a huge hit in its native Australia but a major box-office disappointment in the United States, where audiences largely ignored the display of nonstop silliness.\n\n\n\nFormat : MPEG-4\nFormat profile : Base Media / Version 2\nCodec ID : mp42\nFile size : 1.23 GiB\nDuration : 1h 30mn\nOverall bit rate mode : Variable\nOverall bit rate : 1 935 Kbps\nWriting application : HandBrake 0.10.1 2015030800\n\nVideo\nID : 1\nFormat : AVC\nFormat/Info : Advanced Video Codec\nFormat profile : Main@L4\nFormat settings, CABAC : Yes\nFormat settings, ReFrames : 4 frames\nCodec ID : avc1\nCodec ID/Info : Advanced Video Coding\nDuration : 1h 30mn\nBit rate : 1800 Kbps\nWidth : 1280 pixels\nHeight : 720 pixels\nDisplay aspect ratio : 16:9\nFrame rate mode : Variable\nFrame rate : 29.970 fps\nMinimum frame rate : 7.493 fps\nMaximum frame rate : 29.970 fps\nColor space : YUV\nChroma subsampling : 4:2:0\nBit depth : 8 bits\nScan type : Progressive\nBits/(Pixel*Frame) : 0.065\nStream size : 1.14 GiB (93%)\nWriting library : x264 core 142 r2479 \nColor range : Limited\nColor primaries : BT.709\nTransfer characteristics : BT.709\nMatrix coefficients : BT.709\n\nAudio\nID : 2\nFormat : AAC\nFormat/Info : Advanced Audio Codec\nFormat profile : LC\nCodec ID : 40\nDuration : 1h 30mn\nBit rate mode : Variable\nBit rate : 128 Kbps\nChannel(s) : 2 channels\nChannel positions : Front: L R\nSampling rate : 48.0 KHz\nCompression mode : Lossy\nStream size : 83.4 MiB (7%)\nTitle : Stereo / Stereo","torrent":{"xt":"urn:btih:f005413408fefc0446872322a4553cc94031b09e","amp;dn":"Young+Einstein+-+%281988%29+WebRip+x264+%5BAClass%5D.mp4","amp;tr":["udp%3A%2F%2Ftracker.openbittorrent.com%3A80","udp%3A%2F%2Fopen.demonii.com%3A1337","udp%3A%2F%2Ftracker.coppersurfer.tk%3A6969","udp%3A%2F%2Fexodus.desync.com%3A6969"],"infoHash":"f005413408fefc0446872322a4553cc94031b09e","infoHashBuffer":{"type":"Buffer","data":[240,5,65,52,8,254,252,4,70,135,35,34,164,85,60,201,64,49,176,158]},"announce":[],"urlList":[]}}